<?xml version="1.0" encoding="iso-8859-1"?>
<!-- Generator: Adobe Illustrator 19.0.0, SVG Export Plug-In . SVG Version: 6.00 Build 0)  -->
<svg version="1.1" id="Layer_1" xmlns="http://www.w3.org/2000/svg" xmlns:xlink="http://www.w3.org/1999/xlink" x="0px" y="0px"
	 viewBox="0 0 495 495" style="enable-background:new 0 0 495 495;" xml:space="preserve">
<g>
	<rect x="330.645" y="390" style="fill:#003068;" width="40" height="40"/>
	<polygon style="fill:#165C92;" points="350.645,390 483.005,390 350.645,125.279 	"/>
	<polygon style="fill:#1E81CE;" points="350.645,125.279 218.284,390 350.645,390 	"/>
	<rect y="430" style="fill:#1E81CE;" width="495" height="40"/>
	<path style="fill:#FFD422;" d="M350.644,69.604c11.304,0,20.5-9.196,20.5-20.5s-9.196-20.5-20.5-20.5s-20.5,9.196-20.5,20.5
		S339.34,69.604,350.644,69.604z"/>
	<path style="fill:#FFDE55;" d="M281.881,140.5c11.304,0,20.5-9.196,20.5-20.5s-9.196-20.5-20.5-20.5s-20.5,9.196-20.5,20.5
		S270.578,140.5,281.881,140.5z"/>
	<path style="fill:#FFDE55;" d="M419.407,140.5c11.304,0,20.5-9.196,20.5-20.5s-9.196-20.5-20.5-20.5s-20.5,9.196-20.5,20.5
		S408.103,140.5,419.407,140.5z"/>
	<path style="fill:#FFDE55;" d="M75.593,282.291c11.304,0,20.5-9.196,20.5-20.5s-9.196-20.5-20.5-20.5s-20.5,9.196-20.5,20.5
		S64.289,282.291,75.593,282.291z"/>
	<path style="fill:#FFD422;" d="M123.855,332.687c0,11.304,9.196,20.5,20.5,20.5s20.5-9.196,20.5-20.5s-9.196-20.5-20.5-20.5
		S123.855,321.383,123.855,332.687z"/>
	<path style="fill:#FFE477;" d="M155,215c17.31,0,33.523-4.653,47.5-12.741C174.113,185.831,155,155.157,155,120
		s19.113-65.831,47.5-82.259C188.523,29.653,172.31,25,155,25c-52.467,0-95,42.533-95,95S102.533,215,155,215z"/>
</g>
<g>
</g>
<g>
</g>
<g>
</g>
<g>
</g>
<g>
</g>
<g>
</g>
<g>
</g>
<g>
</g>
<g>
</g>
<g>
</g>
<g>
</g>
<g>
</g>
<g>
</g>
<g>
</g>
<g>
</g>
</svg>
